<?xml version="1.0" encoding="UTF-8"?>
<svg width="204px" height="64px" viewBox="0 0 204 64" version="1.1" xmlns="http://www.w3.org/2000/svg" xmlns:xlink="http://www.w3.org/1999/xlink">
    <!-- Generator: Sketch 60 (88103) - https://sketch.com -->
    <title>topbar_logo</title>
    <desc>Created with Sketch.</desc>
    <defs>
        <polygon id="path-1" points="0.00926851852 0.300792501 26.4830566 0.300792501 26.4830566 23.6728395 0.00926851852 23.6728395"></polygon>
        <polygon id="path-3" points="0.00738271605 0.301487654 29.0928765 0.301487654 29.0928765 23.6728395 0.00738271605 23.6728395"></polygon>
        <polygon id="path-5" points="0.00012037037 0.301367284 31.0227747 0.301367284 31.0227747 23.6728395 0.00012037037 23.6728395"></polygon>
        <polygon id="path-7" points="0.0605061728 0.301487654 15.7255062 0.301487654 15.7255062 23.6728395 0.0605061728 23.6728395"></polygon>
    </defs>
    <g id="导航" stroke="none" stroke-width="1" fill="none" fill-rule="evenodd" opacity="0.904482887">
        <g id="topbar_机器视觉_视觉产品" transform="translate(-351.000000, 0.000000)">
            <g id="topbar">
                <g id="编组-7">
                    <g>
                        <g id="编组-3" transform="translate(351.000000, 0.000000)">
                            <g id="编组" transform="translate(9.000000, 19.500000)">
                                <path d="M135.206701,7.65848457 C135.126855,7.78487346 135.042194,7.90965741 134.952719,8.03163272 C134.803059,8.23586111 134.640157,8.43326852 134.466022,8.61984259 C134.292287,8.80641667 134.10491,8.98416358 133.915929,9.14305247 C133.14596,9.7910463 132.331052,10.1545648 131.537009,10.3547809 C131.145404,10.4534846 130.756207,10.5136698 130.378244,10.551787 C130.000281,10.5899043 129.637565,10.6055525 129.282873,10.6147809 C128.918954,10.6244105 128.557843,10.6256142 128.197534,10.6260154 C128.075559,10.6264167 127.953583,10.6264167 127.832009,10.6268179 L127.116207,10.6268179 L126.569324,10.6268179 L126.747472,10.142929 L129.017256,3.98237346 L129.460219,2.78067593 L130.178028,2.78067593 L130.893429,2.78067593 C131.015404,2.78067593 131.136978,2.78107716 131.258552,2.7814784 C131.610034,2.78228086 131.961114,2.78348457 132.308985,2.7931142 C133.407966,2.80033642 134.435127,3.34120062 135.061454,4.24437963 C135.765219,5.25910185 135.821793,6.58799074 135.206701,7.65848457 M131.802225,18.2049352 C131.729602,18.3289167 131.653769,18.4504907 131.573923,18.5700586 C131.423861,18.7951512 131.26096,19.0114167 131.086824,19.2160463 C130.91309,19.4206759 130.726114,19.6160772 130.536731,19.790213 C129.767164,20.5016019 128.952256,20.900429 128.157812,21.1203056 C127.766207,21.2286389 127.377009,21.2948426 126.999046,21.336571 C126.621083,21.3778981 126.258367,21.3955525 125.903676,21.4059846 C125.539756,21.4160154 125.179046,21.4176204 124.818336,21.4184228 C124.457627,21.4192253 124.097719,21.4188241 123.73741,21.4188241 L122.592688,21.4188241 L122.877565,20.6456451 L125.14775,14.4850895 L125.590312,13.283392 L126.79883,13.283392 C127.159139,13.283392 127.519448,13.2829907 127.879756,13.2837932 C128.230836,13.2841944 128.581917,13.2857994 128.929787,13.2958302 C129.820127,13.3010463 130.671948,13.6581451 131.300281,14.2884846 C132.33667,15.329287 132.542503,16.937034 131.802225,18.2049352 M139.871454,5.08657099 C139.761515,4.23234259 139.44775,3.41703395 138.956639,2.70925617 C137.959571,1.27323765 136.326546,0.412188272 134.577966,0.401185251 C133.235435,0.400552469 133.104633,0.402558642 131.762102,0.408175926 C131.292657,0.410182099 130.823213,0.411385802 130.353769,0.413391975 C130.122657,0.414194444 129.891546,0.41379321 129.660435,0.41379321 L128.945836,0.41379321 C127.068059,0.414595679 125.190682,0.414595679 123.313306,0.414996914 L114.698799,23.786108 L128.316701,23.786108 C128.514509,23.786108 128.712318,23.7853056 128.910127,23.7832994 C129.016052,23.7824969 129.121577,23.780892 129.227503,23.7784846 C129.446176,23.7736698 129.664448,23.7632377 129.88312,23.7495957 C130.405127,23.7182994 130.92312,23.6689475 131.439509,23.5814784 C132.488336,23.402929 133.452503,23.0767253 134.363707,22.5105833 C134.811083,22.2321265 135.217935,21.91475 135.599509,21.552034 C135.844664,21.3193179 136.075373,21.0753673 136.287627,20.8121574 C136.326546,20.7644105 136.363861,20.7162623 136.400775,20.6673117 C136.475806,20.5678056 136.546824,20.4662932 136.614633,20.3619722 C137.188398,19.4812623 137.496948,18.4520957 137.506577,17.4012623 C137.51741,16.2140093 137.14667,15.0508302 136.443707,14.0918796 C135.741546,13.132929 134.743676,12.4291636 133.599355,12.09975 L133.612596,12.09975 C134.666639,11.9464784 135.645651,11.6559846 136.579324,11.1227438 C137.455219,10.6232068 138.278151,9.79626235 138.851114,8.98416358 C139.162071,8.56728086 139.410836,8.10706481 139.588985,7.61836111 C139.885096,6.80947222 139.981793,5.94079938 139.871454,5.08657099" id="Fill-1" fill="#FFFFFF"></path>
                                <g transform="translate(65.802469, 0.121454)">
                                    <mask id="mask-2" fill="white">
                                        <use xlink:href="#path-1"></use>
                                    </mask>
                                    <g id="Clip-4"></g>
                                    <path d="M21.2578488,7.21768827 C20.6884969,8.66373765 19.6573241,9.8690463 18.3585278,10.7040154 C17.058929,11.5393858 15.5362438,11.9779352 13.9959043,11.9915772 C13.9561821,11.9919784 13.9168611,11.9923796 13.8771389,11.9923796 C13.6351944,11.9939846 13.39325,11.9943858 13.1513056,11.994787 L12.3817377,11.994787 L11.333713,11.994787 L11.6149784,11.2316389 L12.0579414,10.0299414 L12.8748549,7.81151543 L14.3277253,3.86898457 L14.5536204,3.25670062 L14.7706883,2.66728704 L16.7483735,2.66728704 C16.8522932,2.66728704 16.9558117,2.66768827 17.0597315,2.66768827 C17.411213,2.66889198 17.7622932,2.67009568 18.1101636,2.67972531 C19.2091451,2.6865463 20.2363056,3.22821296 20.8626327,4.13139198 C21.4889599,5.03457099 21.6366142,6.18571296 21.2578488,7.21768827 M25.0695772,2.32182407 C23.9409043,1.01259568 22.2894228,0.272719136 20.5613056,0.301608025 L19.9385895,0.301608025 L16.8851944,0.301608025 L10.3318302,0.301608025 L9.59556481,0.301608025 C9.27136728,0.302009259 8.94757099,0.301608025 8.62377469,0.301608025 L0.00926851852,23.6731204 L7.03087346,23.6731204 L10.3338364,14.7087377 L11.4653179,14.7087377 L11.5913056,14.7087377 L14.363034,20.0848796 L15.5763673,22.4389228 L15.6201019,22.5231821 C16.0048858,23.2317623 16.7463673,23.6731204 17.5528488,23.6731204 L23.625534,23.6731204 L18.800287,14.3167315 L18.704392,14.1309599 C22.6397006,13.3136451 25.4836512,11.4583364 26.3170154,7.54148457 C26.3491142,7.39021914 26.3784043,7.23534259 26.4044846,7.07765741 C26.6873549,5.37281173 26.19825,3.63065123 25.0695772,2.32182407" id="Fill-3" fill="#FFFFFF" mask="url(#mask-2)"></path>
                                </g>
                                <g transform="translate(38.518519, 0.121454)">
                                    <mask id="mask-4" fill="white">
                                        <use xlink:href="#path-3"></use>
                                    </mask>
                                    <g id="Clip-6"></g>
                                    <path d="M24.8137099,23.673 L17.3932778,9.2859321 L29.0928765,0.301487654 L23.8483395,0.301487654 L12.4035247,9.09053086 L15.6455,0.301487654 L8.62229012,0.301487654 L0.00738271605,23.673 L7.02938889,23.673 L10.3319506,14.7086173 L12.0853457,13.3620741 L16.7424753,22.3958704 C17.1047901,23.1710556 17.881179,23.667784 18.7366111,23.673 L24.8137099,23.673 Z" id="Fill-5" fill="#FFFFFF" mask="url(#mask-4)"></path>
                                </g>
                                <g transform="translate(0.000000, 0.121454)">
                                    <mask id="mask-6" fill="white">
                                        <use xlink:href="#path-5"></use>
                                    </mask>
                                    <g id="Clip-8"></g>
                                    <path d="M12.3196265,9.30065741 L20.6813549,9.30065741 C21.7879599,6.30102778 22.8941636,3.30139815 24.0007685,0.301367284 L31.0227747,0.301367284 C28.3256759,7.61828086 25.6281759,14.934392 22.9310772,22.2505031 L22.9310772,22.2444846 C22.929071,22.2525093 22.9246574,22.2601327 22.9202438,22.2685586 C22.5948426,23.0838673 21.7999969,23.6652562 20.8731451,23.6728796 L15.3850586,23.6728796 L19.5053364,12.4940833 L11.1432068,12.4940833 C9.76978086,16.2203488 8.3959537,19.9466142 7.02212654,23.6728796 L0.00012037037,23.6728796 C2.87255864,15.8825093 5.74499691,8.09173765 8.61743519,0.301367284 L15.6366327,0.301367284 C14.5308302,3.30139815 13.4250278,6.30102778 12.3196265,9.30065741" id="Fill-7" fill="#FFFFFF" mask="url(#mask-6)"></path>
                                </g>
                                <g transform="translate(26.882716, 0.121454)">
                                    <mask id="mask-8" fill="white">
                                        <use xlink:href="#path-7"></use>
                                    </mask>
                                    <g id="Clip-10"></g>
                                    <polygon id="Fill-9" fill="#FFFFFF" mask="url(#mask-8)" points="7.09495062 23.673 15.7255062 0.301487654 8.69106173 0.301487654 0.0605061728 23.673"></polygon>
                                </g>
                                <path d="M110.901074,6.05041667 C109.471475,9.94640432 108.042278,13.842392 106.612679,17.7383796 C105.744407,19.9828858 103.731815,21.3587191 101.338049,21.426929 L100.947648,21.426929 C100.153605,21.426929 99.4101173,21.0389352 98.9559198,20.3881327 C98.501321,19.7373302 98.3933889,18.905571 98.6670309,18.1604784 C100.09663,14.2656944 101.52663,10.3705093 102.95663,6.47572531 C103.823698,4.22560185 105.835889,2.85779321 108.228451,2.78878086 C108.352833,2.78757716 108.477617,2.78677469 108.602401,2.78550142 C109.398852,2.77955247 110.147957,3.16433642 110.606969,3.81594136 C111.06558,4.46714506 111.175519,5.30251543 110.901074,6.05041667 M115.662926,2.4433179 C114.534253,1.13408951 112.882772,0.394212963 111.154654,0.423101852 L107.478543,0.423101852 L107.02916,0.423101852 C106.8795,0.423101852 106.72984,0.423503086 106.580179,0.427515432 C106.280056,0.436342593 105.981938,0.45720679 105.68342,0.490108025 C105.085179,0.556311728 104.501784,0.670262346 103.921599,0.830354938 C102.766846,1.14973765 101.660241,1.63964506 100.644716,2.27479938 C98.5911975,3.55915123 96.9726173,5.39279321 95.9378333,7.57992284 C95.5703025,8.28489198 95.2304568,9.00109568 94.9134815,9.73054012 C94.0022778,11.827392 93.2784506,14.0430093 92.7516296,16.2261265 C92.6858272,16.4909414 92.6276481,16.7493364 92.5722778,17.0101389 C92.2898086,18.7149846 92.7785123,20.4575463 93.9071852,21.7663735 C95.035858,23.0752006 96.6873395,23.8150772 98.4154568,23.7861883 L102.670148,23.7861883 C103.568111,23.7861883 104.462463,23.6774537 105.333944,23.4615895 C108.428667,22.694429 111.368111,20.6641821 113.168049,17.5193056 C113.326938,17.2147685 113.485827,16.9106327 113.644315,16.6064969 C113.802802,16.3015586 113.956475,15.994213 114.105333,15.6852623 C114.403451,15.0657562 114.681506,14.4382253 114.942309,13.8026698 C115.465519,12.5291512 115.915302,11.2359722 116.302494,9.91550926 C116.491475,9.27072531 116.663204,8.62554012 116.818481,7.98316358 C116.884685,7.71875 116.942463,7.4599537 116.997833,7.19915123 C117.280302,5.49430556 116.791599,3.75174383 115.662926,2.4433179" id="Fill-11" fill="#FFFFFF"></path>
                                <path d="M158.270065,6.04219136 C156.840466,9.93817901 155.411269,13.8341667 153.98167,17.7305556 C153.113398,19.9746605 151.100806,21.3508951 148.70704,21.4187037 L148.316639,21.4187037 C147.522596,21.4187037 146.779108,21.0307099 146.324509,20.3799074 C145.870312,19.7291049 145.76238,18.8973457 146.036022,18.1526543 C147.46562,14.2574691 148.89562,10.3626852 150.325219,6.4675 C151.192688,4.21737654 153.20488,2.8495679 155.59704,2.78055556 C155.721824,2.77975309 155.846207,2.77854938 155.970991,2.77766791 C156.767843,2.77132716 157.516948,3.15651235 157.97596,3.80771605 C158.434571,4.45932099 158.544509,5.29429012 158.270065,6.04219136 M163.031917,2.43509259 C161.903244,1.12626543 160.251361,0.385987654 158.523645,0.415277778 L154.847133,0.415277778 L154.398151,0.415277778 C154.248491,0.415277778 154.09883,0.415277778 153.94917,0.419290123 C153.649046,0.428518519 153.350528,0.449382716 153.05241,0.482283951 C152.453769,0.54808642 151.870775,0.662037037 151.29059,0.822530864 C150.135435,1.14151235 149.029231,1.63141975 148.013707,2.26657407 C145.960188,3.55092593 144.341608,5.3845679 143.306824,7.57169753 C142.939293,8.27666667 142.599448,8.9932716 142.282071,9.72231481 C141.371269,11.8191667 140.647441,14.034784 140.12062,16.2179012 C140.054818,16.482716 139.996639,16.7415123 139.941269,17.0019136 C139.658398,18.7067593 140.147503,20.449321 141.276176,21.7581481 C142.404849,23.0669753 144.05633,23.8068519 145.784448,23.777963 L150.039139,23.777963 C150.937102,23.777963 151.831454,23.6692284 152.702935,23.4533642 C155.797657,22.6862037 158.737102,20.6559568 160.53704,17.5114815 C160.695929,17.2069444 160.854818,16.9024074 161.013306,16.5982716 C161.171793,16.2933333 161.325466,15.9863889 161.474324,15.677037 C161.77204,15.0575309 162.050096,14.4304012 162.311299,13.7944444 C162.834509,12.5209259 163.284293,11.2281481 163.671485,9.90728395 C163.860466,9.2625 164.032194,8.61771605 164.187472,7.97493827 C164.253676,7.71052469 164.311454,7.4517284 164.366824,7.19092593 C164.649293,5.48608025 164.16059,3.74351852 163.031917,2.43509259" id="Fill-13" fill="#FFFFFF"></path>
                                <path d="M168.396543,0.415117284 L175.412531,0.415117284 L189.444506,0.415117284 L188.26608,3.61095062 L181.256512,3.61095062 C181.102037,4.02983951 180.947562,4.4487284 180.793086,4.86761728 C178.64608,10.6907346 176.499074,16.5142531 174.352469,22.3377716 C174.34966,22.3441914 174.347654,22.3510123 174.344846,22.3578333 C174.025463,23.2112593 173.21216,23.7798086 172.300154,23.7862284 L172.270062,23.7862284 L166.79642,23.7862284 L169.695741,15.9212284 L174.234105,3.61095062 L167.218519,3.61095062 L168.396543,0.415117284 Z" id="Fill-15" fill="#FFFFFF"></path>
                            </g>
                        </g>
                    </g>
                </g>
            </g>
        </g>
    </g>
</svg>